Coordinates
version=1
nRows=11
nColumns=36
inDegrees=yes

Units are S.I. units (second, meters, Newtons, ...)
If the header above contains a line with 'inDegrees', this indicates whether rotational values are in degrees (yes) or radians (no).

endheader
time	pelvis_tilt	pelvis_list	pelvis_rotation	pelvis_tx	pelvis_ty	pelvis_tz	hip_flexion_r	hip_adduction_r	hip_rotation_r	knee_angle_r	knee_angle_r_beta	ankle_angle_r	subtalar_angle_r	mtp_angle_r	hip_flexion_l	hip_adduction_l	hip_rotation_l	knee_angle_l	knee_angle_l_beta	ankle_angle_l	subtalar_angle_l	mtp_angle_l	lumbar_extension	lumbar_bending	lumbar_rotation	arm_flex_r	arm_add_r	arm_rot_r	elbow_flex_r	pro_sup_r	arm_flex_l	arm_add_l	arm_rot_l	elbow_flex_l	pro_sup_l
      1.73333330	      7.51354885	     -4.54416675	      0.72846087	      0.60254054	      1.05231130	     -0.10775460	     22.86854046	      2.53640591	      8.60687240	     51.80202352	      0.90411587	     -4.08529202	    -34.23926190	     -7.50000774	     -1.68284299	      0.60748966	     -1.44493128	     12.04964993	      0.21030606	      6.89032148	      0.37431858	     -7.50000774	    -11.64347306	      9.11699281	     -9.10674606	      4.88800980	     -7.34892776	     17.83381192	     27.17996601	     84.15904469	     16.86517331	    -14.12409537	      3.04078929	     56.61326825	     78.83160917
      1.75000000	      6.79559607	     -4.30017091	     -0.01129993	      0.60272893	      1.05142566	     -0.10110517	     21.72827539	      1.01587532	      8.60647175	     52.42048332	      0.91491003	     -4.63951042	    -34.32863567	     -7.50000676	     -1.05039993	      0.75735899	     -1.27678884	     12.40150166	      0.21644704	      7.03050871	     -0.69667302	     -7.50000676	    -10.51291742	      8.41542644	     -9.02929236	      4.96623742	     -6.77959237	     17.51519808	     25.30243919	     83.04184696	     15.37184424	    -15.21090443	      0.02311537	     58.39261311	     78.17178215
      1.76666670	      6.24488368	     -4.28692303	     -0.71652904	      0.60525978	      1.05252349	     -0.09606364	     19.91286089	     -0.21196310	      8.43349084	     51.99583529	      0.90749852	     -5.78198784	    -34.39986744	     -7.50000610	     -0.47397520	      0.54888069	     -1.27513530	     13.23318553	      0.23096266	      6.95941849	     -1.01391546	     -7.50000610	     -9.52896958	      7.92072618	     -8.07794575	      4.10709922	     -6.84914511	     17.55539617	     25.40079385	     81.79675897	     14.93920301	    -16.26598893	     -0.93111699	     59.01040020	     77.24212031
      1.78333330	      5.74825692	     -4.27828454	     -1.51391592	      0.60737574	      1.04803269	     -0.09307897	     18.44303583	     -1.27422624	      8.20536740	     51.73360165	      0.90292168	     -6.29318403	    -34.43431180	     -7.50000514	      0.21500832	      0.35385656	     -1.75730247	     14.16012955	      0.24714088	      7.65401926	     -1.08827101	     -7.50000514	     -8.75784214	      7.49135190	     -8.07934640	      4.21503083	     -6.59459607	     18.46221278	     23.93336748	     81.03426902	     13.35464452	    -17.42346046	     -4.27158937	     61.24114783	     77.04611349
      1.80000000	      5.25733896	     -4.34365436	     -2.22552492	      0.60982205	      1.04652927	     -0.09340672	     17.00579366	     -2.31669238	      7.87944666	     51.14200095	      0.89259630	     -6.77787710	    -34.45684646	     -7.50000473	      0.49170521	      0.24075874	     -2.08325876	     14.28997941	      0.24940719	      8.28419075	     -1.07767354	     -7.50000473	     -7.81709260	      7.18783381	     -7.31563070	      3.61839681	     -6.61275429	     18.33949679	     23.18841679	     80.08091256	     12.99608776	    -18.54232450	     -5.34226002	     61.83551593	     76.44206614
      1.81666670	      4.53406357	     -4.51971037	     -3.06498257	      0.60806683	      1.04661506	     -0.09312427	     15.91744576	     -3.27407375	      7.25164902	     49.83807574	      0.86983851	     -7.36850940	    -34.47557692	     -7.50000442	      0.89087503	      0.10236432	     -2.31549069	     13.84448181	      0.24163179	      8.92667184	     -1.46309267	     -7.50000442	     -6.81184955	      7.12113775	     -6.44057177	      2.84394252	     -6.87816565	     18.18362336	     23.26900824	     79.09361835	     12.74781934	    -19.58855175	     -6.14905057	     62.41815329	     75.68095404
      1.83333330	      4.28657712	     -4.82476579	     -3.71879560	      0.61093710	      1.04869551	     -0.09495214	     14.20361937	     -4.20603866	      6.43751267	     47.85881542	      0.83529391	     -8.02010952	    -34.43788322	     -7.50000427	      0.69895781	     -0.14464794	     -2.54695165	     13.20135430	      0.23040710	      9.28180402	     -1.24424839	     -7.50000427	     -6.36768601	      7.34504108	     -6.19888661	      2.83225137	     -6.80888852	     17.69005482	     21.64383244	     78.55107268	     11.98844302	    -20.38214995	     -8.14014323	     63.40548297	     75.37411273
      1.85000000	      3.71255263	     -4.85928371	     -4.40608766	      0.60866561	      1.04534205	     -0.09478713	     13.18802983	     -5.25170589	      5.76268600	     45.84238005	      0.80010047	     -8.41951067	    -34.39533124	     -7.50000401	      1.11271502	     -0.06138128	     -2.44079255	     12.74331907	      0.22241288	      9.31695060	     -1.92434721	     -7.50000401	     -5.75651956	      7.31169010	     -6.10465565	      2.74337334	     -6.91696378	     17.35595340	     20.89715599	     77.57297572	     11.19529094	    -21.27293145	    -10.20593291	     64.79402262	     74.76603981
      1.86666670	      2.99718225	     -4.77436306	     -5.12993314	      0.60471515	      1.03608472	     -0.09183252	     12.87204990	     -6.18299251	      5.09243846	     44.40442656	      0.77500345	     -8.28382757	    -34.38477506	     -7.50000362	      1.94957998	      0.03434205	     -2.52582542	     12.56571234	      0.21931305	      9.63502546	     -2.32641213	     -7.50000362	     -5.10316254	      7.12869355	     -5.31577243	      2.22025807	     -7.32558734	     17.16856438	     21.18491275	     76.44775386	     11.45118972	    -22.28223272	    -10.80961969	     65.40424917	     73.88191468
      1.88333330	      2.42397225	     -4.66903086	     -5.70927296	      0.60363687	      1.03886723	     -0.09002686	     12.10758252	     -7.04323266	      4.07675335	     42.29604101	      0.73820518	     -7.84418639	    -34.32546872	     -7.50000342	      2.58923409	      0.12865821	     -1.97660078	     12.30758034	      0.21480780	      9.46779198	     -3.37170829	     -7.50000342	     -4.54914580	      6.89015236	     -5.26661458	      2.54264939	     -7.17559050	     16.59351220	     19.56447139	     75.44286620	     11.08659722	    -23.37347786	    -12.20055764	     66.25160593	     73.20382069
      1.90000000	      1.71663926	     -4.25928551	     -6.31298445	      0.60320824	      1.03474496	     -0.08793143	     11.70706451	     -8.09678911	      3.08342360	     40.25050545	      0.70250385	     -7.23951593	    -34.27098534	     -7.50000310	      3.46694285	      0.47849784	     -1.59147904	     12.32594719	      0.21512836	      9.22834956	     -4.70852326	     -7.50000310	     -3.86387843	      6.28610162	     -4.78502125	      2.19593731	     -7.23497803	     15.93428346	     19.43436010	     74.37619655	     11.09663705	    -24.43497689	    -12.97231561	     67.01878525	     72.40970536
